<?xml version="1.0" standalone="no"?>
<!DOCTYPE svg PUBLIC "-//W3C//DTD SVG 20010904//EN"
 "http://www.w3.org/TR/2001/REC-SVG-20010904/DTD/svg10.dtd">
<svg version="1.0" xmlns="http://www.w3.org/2000/svg"
 width="700.000000pt" height="700.000000pt" viewBox="0 0 700.000000 700.000000"
 preserveAspectRatio="xMidYMid meet">
<metadata>
Created by potrace 1.14, written by Peter Selinger 2001-2017
</metadata>
<g transform="translate(0.000000,700.000000) scale(0.100000,-0.100000)"
fill="#000000" stroke="none">
<path d="M2691 5732 c-60 -120 -113 -227 -120 -238 -11 -19 -183 -366 -298
-599 -35 -71 -68 -139 -74 -149 -7 -11 -61 -119 -120 -240 -60 -122 -114 -229
-120 -239 -5 -10 -131 -262 -280 -560 -148 -298 -274 -551 -281 -561 -6 -11
-60 -119 -119 -240 -60 -122 -114 -229 -120 -239 -6 -11 -96 -191 -200 -400
-104 -210 -194 -391 -200 -401 -20 -35 -229 -456 -229 -461 0 -3 -10 -22 -23
-43 -13 -20 -32 -57 -42 -82 -11 -25 -28 -60 -39 -79 -11 -19 -33 -61 -48 -93
l-27 -58 372 0 c390 1 466 8 598 49 228 72 441 231 566 423 27 41 390 757 807
1591 418 835 762 1514 766 1510 4 -4 33 -60 64 -123 32 -63 61 -122 65 -130 5
-8 58 -115 120 -237 61 -123 161 -323 222 -445 62 -123 116 -230 120 -238 4
-8 58 -116 120 -240 62 -124 116 -232 120 -240 5 -8 112 -224 240 -479 127
-255 235 -471 239 -480 5 -9 49 -97 98 -196 113 -226 125 -249 135 -253 4 -2
7 -9 7 -16 0 -17 102 -143 163 -200 155 -147 338 -239 557 -280 55 -11 173
-15 452 -15 l377 -2 -14 33 c-8 18 -558 1120 -1222 2448 l-1208 2415 -658 3
-657 2 -109 -218z"/>
<path d="M3413 3057 c-29 -5 -53 -13 -53 -18 0 -5 -6 -9 -13 -9 -7 0 -25 -12
-39 -27 -15 -16 -212 -399 -439 -853 -454 -908 -443 -880 -400 -972 26 -53 52
-81 107 -107 38 -19 66 -20 877 -21 723 0 842 2 873 15 20 8 41 12 48 8 6 -3
8 -2 3 2 -4 5 7 23 24 41 17 18 40 56 49 84 15 45 16 59 5 104 -16 68 -805
1644 -847 1691 -27 32 -49 47 -80 54 -4 1 -20 6 -35 10 -16 4 -52 3 -80 -2z"/>
</g>
</svg>
