<svg width="27" height="26" viewBox="0 0 27 26" fill="none" xmlns="http://www.w3.org/2000/svg">
<g clip-path="url(#clip0_3946_5108)">
<path d="M20.5928 1.07922C21.9494 -0.277138 24.1483 -0.277138 25.5049 1.07922C26.8614 2.43582 26.8623 4.63565 25.5059 5.99231C24.7145 6.78359 23.6361 7.1124 22.6055 6.98059L14.5586 25.0548L14.2041 25.8517L13.3672 25.6085L13.6455 24.6486C13.367 25.6089 13.3656 25.6086 13.3652 25.6085L13.3633 25.6075C13.362 25.6072 13.36 25.607 13.3584 25.6066C13.3549 25.6055 13.3506 25.6041 13.3457 25.6027C13.3357 25.5996 13.3223 25.5949 13.3066 25.59C13.2751 25.5799 13.2321 25.5656 13.1787 25.547C13.0713 25.5095 12.92 25.4536 12.7305 25.3751C12.3515 25.2181 11.8173 24.9709 11.1631 24.6007C9.8533 23.8595 8.06487 22.6265 6.0791 20.6407C4.09371 18.6552 2.86127 16.8674 2.12012 15.5577C1.74998 14.9036 1.50265 14.3693 1.3457 13.9904C1.26727 13.801 1.21133 13.6495 1.17383 13.5421C1.15517 13.4887 1.1409 13.4457 1.13086 13.4142C1.12587 13.3985 1.1212 13.3851 1.11816 13.3751C1.11676 13.3706 1.11527 13.3667 1.11426 13.3634C1.11379 13.3618 1.11358 13.3598 1.11328 13.3585V13.3566L1.1123 13.3556C1.11218 13.3552 1.11214 13.3538 2.07227 13.0753L1.1123 13.3536L0.869141 12.5167L1.66602 12.1622L19.6318 4.16125C19.4347 3.07713 19.7547 1.91731 20.5928 1.07922ZM8.18262 21.2384C8.40768 21.4341 8.62875 21.6189 8.84473 21.7941L8.18359 21.2384C8.07118 21.1406 7.95726 21.0407 7.84277 20.9376L8.18262 21.2384ZM6.43555 19.5763L6.78613 19.9337C6.90594 20.0535 7.02541 20.1712 7.14355 20.2853H7.14453C7.02622 20.171 6.90709 20.0537 6.78711 19.9337C6.62045 19.7671 6.46029 19.6011 6.30469 19.4376C6.34823 19.4834 6.39113 19.5303 6.43555 19.5763ZM24.3857 5.61438C24.4136 5.59665 24.4405 5.57767 24.4678 5.55872C24.4406 5.57773 24.4135 5.59658 24.3857 5.61438ZM24.5605 5.49133C24.5767 5.47884 24.5944 5.46819 24.6104 5.4552L24.6357 5.43176C24.6111 5.45235 24.5858 5.47187 24.5605 5.49133ZM24.7979 5.28528C24.7925 5.29066 24.7867 5.29559 24.7812 5.3009L24.7988 5.28528C24.8098 5.27434 24.8184 5.26123 24.8291 5.25012C24.8183 5.26138 24.809 5.27418 24.7979 5.28528ZM24.9482 5.11829C24.9546 5.11069 24.9625 5.10445 24.9688 5.0968C24.9806 5.08229 24.9896 5.06562 25.001 5.0509C24.9835 5.07338 24.9666 5.09629 24.9482 5.11829ZM25.085 4.93762C25.0995 4.91649 25.1142 4.89563 25.1279 4.87415C25.1141 4.89559 25.0995 4.91651 25.085 4.93762Z" fill="white"/>
<path d="M13.6131 24.5322C13.6131 24.5322 11.0485 23.7869 7.64141 20.6652C10.1521 21.2679 12.3379 21.4612 13.9439 21.4959C14.316 21.5039 14.6574 21.5015 14.9645 21.4959L13.6131 24.5322ZM15.653 19.9484C15.2222 19.9712 14.6559 19.9886 13.9771 19.974C12.3048 19.9378 9.95251 19.7209 7.25264 18.9975C6.6348 18.832 6.04588 18.651 5.48763 18.4631C2.71772 15.2921 2.04049 12.9595 2.04049 12.9595L2.12473 12.9208C2.14524 12.9348 2.16531 12.9505 2.18688 12.965C2.597 13.2409 3.19867 13.6215 3.97536 14.0478C5.5281 14.9 7.7871 15.9395 10.6259 16.7001C12.9413 17.3205 15.0156 17.5841 16.6625 17.6821L15.653 19.9484ZM17.3268 16.1905C15.6906 16.1285 13.5024 15.8951 11.0202 15.23C8.32006 14.5065 6.17445 13.5178 4.70802 12.713C4.36314 12.5237 4.05654 12.3435 3.78892 12.1806L7.88655 10.3548C9.43363 11.1919 11.6401 12.1948 14.3934 12.9326C15.847 13.3221 17.206 13.5703 18.4234 13.7267L17.3268 16.1905ZM19.0725 12.2697C17.8049 12.1274 16.3546 11.8823 14.7877 11.4624C12.7475 10.9158 11.0247 10.2157 9.67158 9.56002L13.9004 7.67624C15.1176 8.20431 16.545 8.73114 18.1617 9.16434C18.8799 9.35678 19.5753 9.51368 20.2416 9.64357L19.0725 12.2697ZM24.786 1.78598C25.752 2.75204 25.7526 4.31876 24.7867 5.28492C24.0242 6.04735 22.8887 6.20575 21.9686 5.76484L20.8789 8.21209C20.142 8.07761 19.3642 7.91072 18.556 7.69419C17.5719 7.43052 16.6618 7.12952 15.8311 6.81721L20.1932 4.87474C20.5191 4.98295 20.8553 5.08622 21.2 5.18824C20.3247 4.21702 20.3525 2.72119 21.2877 1.78598C22.2538 0.820189 23.8199 0.820192 24.786 1.78598Z" fill="url(#paint0_linear_3946_5108)"/>
</g>
<defs>
<linearGradient id="paint0_linear_3946_5108" x1="24.7863" y1="1.7863" x2="6.77428" y2="19.7983" gradientUnits="userSpaceOnUse">
<stop stop-color="#F1A194"/>
<stop offset="1" stop-color="#FAD57D"/>
</linearGradient>
<clipPath id="clip0_3946_5108">
<rect width="27" height="26" fill="white"/>
</clipPath>
</defs>
</svg>
