<svg width="80" height="80" viewBox="0 0 80 80" fill="none" xmlns="http://www.w3.org/2000/svg">
<path fill-rule="evenodd" clip-rule="evenodd" d="M38.6056 43.7889C38.9741 43.0518 40.0259 43.0518 40.3944 43.7889L51.7764 66.5528C52.1088 67.2177 51.6253 68 50.882 68H28.118C27.3747 68 26.8912 67.2177 27.2236 66.5528L38.6056 43.7889Z" fill="#6C5647"/>
<path fill-rule="evenodd" clip-rule="evenodd" d="M39.9472 43.3416C40.1407 43.4384 40.2977 43.5953 40.3944 43.7888L51.7764 66.5528C52.0234 67.0468 51.8232 67.6474 51.3292 67.8944C51.1903 67.9638 51.0372 68 50.882 68L39.5 67.9998L39.5003 43.2358C39.6507 43.2358 39.8035 43.2698 39.9472 43.3416Z" fill="url(#paint0_linear_621_28935)"/>
<path fill-rule="evenodd" clip-rule="evenodd" d="M47 12L75 68H63.0902C61.1963 68 59.465 66.93 58.618 65.2361L39.5 27L20.382 65.2361C19.535 66.93 17.8037 68 15.9098 68H4L32 12H47Z" fill="#9D8B73"/>
<path fill-rule="evenodd" clip-rule="evenodd" d="M47 12L39.5 27L47 42V12Z" fill="url(#paint1_linear_621_28935)"/>
<defs>
<linearGradient id="paint0_linear_621_28935" x1="49.4835" y1="28.4926" x2="29.3866" y2="42.4371" gradientUnits="userSpaceOnUse">
<stop stop-opacity="0.2"/>
<stop offset="1" stop-opacity="0.01"/>
</linearGradient>
<linearGradient id="paint1_linear_621_28935" x1="41.5498" y1="-7.05104" x2="58.719" y2="-1.09459" gradientUnits="userSpaceOnUse">
<stop stop-opacity="0.2"/>
<stop offset="1" stop-opacity="0.01"/>
</linearGradient>
</defs>
</svg>
