<svg width="74" height="95" viewBox="0 0 74 95" fill="none" xmlns="http://www.w3.org/2000/svg">
<g opacity="0.4">
<path opacity="0.5" d="M11.4355 13.9961C12.9154 14.4207 14.3 13.084 13.9277 11.5901L11.6245 2.34642C11.2523 0.852493 9.40241 0.321745 8.29475 1.39107L1.44111 8.00754C0.333456 9.07687 0.798749 10.9443 2.27864 11.3689L11.4355 13.9961Z" fill="#9D8B73"/>
<path d="M23.164 48.2109C22.7142 49.6833 20.8391 50.1167 19.7888 48.9909L13.2904 42.0252C12.2402 40.8995 12.8024 39.0589 14.3025 38.7123L23.5842 36.5673C25.0842 36.2207 26.397 37.6279 25.9472 39.1003L23.164 48.2109Z" fill="#9D8B73"/>
<path opacity="0.5" d="M46.4789 68.808C47.6938 69.7536 49.4769 69.0294 49.6883 67.5044L50.9967 58.0684C51.2082 56.5434 49.6895 55.3614 48.2631 55.9407L39.437 59.5256C38.0106 60.105 37.7463 62.0113 38.9613 62.9569L46.4789 68.808Z" fill="#9D8B73"/>
<path d="M72.5047 85.4892C73.8628 86.2144 73.9266 88.1379 72.6195 88.9514L64.5318 93.9853C63.2247 94.7988 61.5271 93.8923 61.4761 92.3536L61.1605 82.8325C61.1095 81.2938 62.7434 80.2768 64.1015 81.002L72.5047 85.4892Z" fill="#9D8B73"/>
</g>
</svg>
