<svg width="74" height="95" viewBox="0 0 74 95" fill="none" xmlns="http://www.w3.org/2000/svg">
<g opacity="0.4">
<path opacity="0.5" d="M11.4355 80.3594C12.9154 79.9348 14.3 81.2715 13.9277 82.7654L11.6245 92.0091C11.2523 93.503 9.40241 94.0337 8.29475 92.9644L1.44111 86.3479C0.333456 85.2786 0.798749 83.4112 2.27864 82.9866L11.4355 80.3594Z" fill="#9D8B73"/>
<path d="M23.164 46.1446C22.7142 44.6721 20.8391 44.2388 19.7888 45.3646L13.2904 52.3302C12.2402 53.456 12.8024 55.2965 14.3025 55.6432L23.5842 57.7882C25.0842 58.1348 26.397 56.7276 25.9472 55.2552L23.164 46.1446Z" fill="#9D8B73"/>
<path opacity="0.5" d="M46.4789 25.5475C47.6938 24.6018 49.4769 25.326 49.6883 26.851L50.9967 36.287C51.2082 37.8121 49.6895 38.9941 48.2631 38.4147L39.437 34.8298C38.0106 34.2505 37.7463 32.3442 38.9613 31.3986L46.4789 25.5475Z" fill="#9D8B73"/>
<path d="M72.5047 8.86623C73.8628 8.14102 73.9266 6.21758 72.6195 5.40403L64.5318 0.370201C63.2247 -0.443347 61.5271 0.463161 61.4761 2.00192L61.1605 11.523C61.1095 13.0617 62.7434 14.0787 64.1015 13.3534L72.5047 8.86623Z" fill="#9D8B73"/>
</g>
</svg>
