<svg width="17" height="17" viewBox="0 0 17 17" fill="none" xmlns="http://www.w3.org/2000/svg">
<path d="M9.84211 6.56975C10.6842 5.71261 10.9298 2.14118 11 0.355469C11.0702 1.99833 11.4157 5.84244 12.3684 6.56975C13.2105 7.21261 15.807 7.56975 17 7.4269C15.807 7.71261 12.8947 8.06975 12.3684 9.14118C11.7368 10.4269 11.1404 13.5698 11 15.3555C10.8596 13.784 10.3474 10.3412 9.84211 9.14118C9.33684 7.94118 6.40351 7.49833 5 7.4269C6.26316 7.4269 9.07955 7.34593 9.84211 6.56975Z" fill="#544236"/>
<path d="M2.42105 3.25547C2.84211 2.85547 2.96491 1.1888 3 0.355469C3.03509 1.12214 3.20784 2.91606 3.68421 3.25547C4.10526 3.55547 5.40351 3.72214 6 3.65547C5.40351 3.7888 3.94737 3.95547 3.68421 4.45547C3.36842 5.05547 3.07018 6.52214 3 7.35547C2.92982 6.62214 2.67368 5.01547 2.42105 4.45547C2.16842 3.89547 0.701754 3.6888 0 3.65547C0.631579 3.65547 2.03977 3.61768 2.42105 3.25547Z" fill="#544236"/>
<path d="M4.42105 12.2555C4.84211 11.8555 4.96491 10.1888 5 9.35547C5.03509 10.1221 5.20784 11.9161 5.68421 12.2555C6.10526 12.5555 7.40351 12.7221 8 12.6555C7.40351 12.7888 5.94737 12.9555 5.68421 13.4555C5.36842 14.0555 5.07018 15.5221 5 16.3555C4.92982 15.6221 4.67368 14.0155 4.42105 13.4555C4.16842 12.8955 2.70175 12.6888 2 12.6555C2.63158 12.6555 4.03977 12.6177 4.42105 12.2555Z" fill="#544236"/>
</svg>
