<svg width="17" height="16" viewBox="0 0 17 16" fill="none" xmlns="http://www.w3.org/2000/svg">
<path d="M9.84211 6.21429C10.6842 5.35714 10.9298 1.78571 11 0C11.0702 1.64286 11.4157 5.48698 12.3684 6.21429C13.2105 6.85714 15.807 7.21429 17 7.07143C15.807 7.35714 12.8947 7.71429 12.3684 8.78571C11.7368 10.0714 11.1404 13.2143 11 15C10.8596 13.4286 10.3474 9.98571 9.84211 8.78571C9.33684 7.58571 6.40351 7.14286 5 7.07143C6.26316 7.07143 9.07955 6.99046 9.84211 6.21429Z" fill="#544236"/>
<path d="M2.42105 2.9C2.84211 2.5 2.96491 0.833333 3 0C3.03509 0.766667 3.20784 2.56059 3.68421 2.9C4.10526 3.2 5.40351 3.36667 6 3.3C5.40351 3.43333 3.94737 3.6 3.68421 4.1C3.36842 4.7 3.07018 6.16667 3 7C2.92982 6.26667 2.67368 4.66 2.42105 4.1C2.16842 3.54 0.701754 3.33333 0 3.3C0.631579 3.3 2.03977 3.26222 2.42105 2.9Z" fill="#544236"/>
<path d="M4.42105 11.9C4.84211 11.5 4.96491 9.83333 5 9C5.03509 9.76667 5.20784 11.5606 5.68421 11.9C6.10526 12.2 7.40351 12.3667 8 12.3C7.40351 12.4333 5.94737 12.6 5.68421 13.1C5.36842 13.7 5.07018 15.1667 5 16C4.92982 15.2667 4.67368 13.66 4.42105 13.1C4.16842 12.54 2.70175 12.3333 2 12.3C2.63158 12.3 4.03977 12.2622 4.42105 11.9Z" fill="#544236"/>
</svg>
