<svg width="162" height="28" viewBox="0 0 162 28" fill="none" xmlns="http://www.w3.org/2000/svg">
<g id="Brand / Logo / Primary">
<g id="everygram">
<path id="Vector" d="M138.428 22.0944V5.31081H140.898C141.421 5.31081 141.765 5.55618 141.928 6.04693L142.19 7.29016C142.485 6.963 142.79 6.66309 143.106 6.39046C143.433 6.11782 143.777 5.88335 144.137 5.68705C144.508 5.49075 144.9 5.33807 145.315 5.22902C145.74 5.10906 146.203 5.04908 146.705 5.04908C147.763 5.04908 148.63 5.33807 149.306 5.91607C149.993 6.48315 150.506 7.24109 150.844 8.18987C151.105 7.63368 151.433 7.15929 151.825 6.7667C152.218 6.36319 152.649 6.03603 153.117 5.7852C153.586 5.53437 154.083 5.34898 154.606 5.22902C155.14 5.10906 155.675 5.04908 156.209 5.04908C157.136 5.04908 157.96 5.19085 158.679 5.47439C159.399 5.75794 160.004 6.17235 160.495 6.71762C160.986 7.2629 161.357 7.92813 161.607 8.71333C161.869 9.49853 162 10.3982 162 11.4124V22.0944H157.96V11.4124C157.96 10.3437 157.725 9.54215 157.256 9.00778C156.787 8.4625 156.1 8.18987 155.195 8.18987C154.781 8.18987 154.393 8.26075 154.034 8.40252C153.685 8.54429 153.374 8.7515 153.101 9.02414C152.839 9.28587 152.632 9.61849 152.479 10.022C152.327 10.4255 152.25 10.889 152.25 11.4124V22.0944H148.194V11.4124C148.194 10.2892 147.965 9.47126 147.507 8.95871C147.059 8.44615 146.4 8.18987 145.527 8.18987C144.938 8.18987 144.388 8.33709 143.875 8.63154C143.373 8.91508 142.904 9.30768 142.468 9.80933V22.0944H138.428Z" fill="#9D8B73"/>
<g id="Brand / Icon Logo / Color">
<g id="logo">
<g id="Group 73">
<path id="Triangle" fill-rule="evenodd" clip-rule="evenodd" d="M124.573 14.6903C124.686 14.4646 125.008 14.4646 125.121 14.6903L128.607 21.6618C128.708 21.8654 128.56 22.105 128.333 22.105H121.361C121.134 22.105 120.986 21.8654 121.087 21.6618L124.573 14.6903Z" fill="#6C5647"/>
</g>
<path id="Path" fill-rule="evenodd" clip-rule="evenodd" d="M127.144 4.955L135.719 22.105H132.071C131.491 22.105 130.961 21.7773 130.702 21.2585L124.847 9.54875L118.992 21.2585C118.733 21.7773 118.202 22.105 117.622 22.105H113.975L122.55 4.955H127.144Z" fill="#9D8B73"/>
</g>
</g>
<path id="Vector_2" d="M108.532 8.22258C109.056 7.21927 109.677 6.43407 110.397 5.86699C111.117 5.289 111.967 5 112.949 5C113.723 5 114.345 5.16904 114.814 5.50711L114.552 8.53339C114.497 8.72969 114.416 8.87146 114.307 8.9587C114.208 9.03504 114.072 9.07321 113.898 9.07321C113.734 9.07321 113.489 9.04594 113.162 8.99142C112.845 8.93689 112.534 8.90963 112.229 8.90963C111.782 8.90963 111.384 8.97506 111.035 9.10593C110.686 9.23679 110.37 9.42764 110.086 9.67846C109.814 9.91839 109.568 10.2128 109.35 10.5618C109.143 10.9108 108.947 11.3088 108.761 11.756V22.0944H104.721V5.31081H107.093C107.507 5.31081 107.796 5.38715 107.96 5.53982C108.123 5.68159 108.232 5.94333 108.287 6.32502L108.532 8.22258Z" fill="#9D8B73"/>
<path id="Vector_3" d="M92.548 13.2936C93.0496 13.2936 93.4859 13.2282 93.8567 13.0974C94.2274 12.9556 94.5328 12.7647 94.7727 12.5248C95.0235 12.2849 95.2089 11.9959 95.3289 11.6578C95.4598 11.3198 95.5252 10.949 95.5252 10.5455C95.5252 9.71664 95.2744 9.06231 94.7727 8.58247C94.282 8.09172 93.5404 7.84634 92.548 7.84634C91.5556 7.84634 90.8086 8.09172 90.3069 8.58247C89.8162 9.06231 89.5708 9.71664 89.5708 10.5455C89.5708 10.9381 89.6308 11.3034 89.7507 11.6415C89.8816 11.9795 90.067 12.274 90.3069 12.5248C90.5577 12.7647 90.8685 12.9556 91.2393 13.0974C91.621 13.2282 92.0572 13.2936 92.548 13.2936ZM97.1119 22.8469C97.1119 22.5197 97.0138 22.2525 96.8175 22.0453C96.6212 21.8381 96.354 21.68 96.0159 21.5709C95.6779 21.451 95.2798 21.3637 94.8218 21.3092C94.3747 21.2547 93.8948 21.2165 93.3823 21.1947C92.8806 21.162 92.3571 21.1347 91.8119 21.1129C91.2775 21.0911 90.754 21.0475 90.2415 20.982C89.7943 21.2329 89.429 21.5273 89.1455 21.8654C88.8728 22.2035 88.7365 22.596 88.7365 23.0432C88.7365 23.3376 88.8074 23.6103 88.9492 23.8611C89.1018 24.1228 89.3363 24.3464 89.6526 24.5318C89.9797 24.7172 90.3996 24.8589 90.9122 24.9571C91.4247 25.0661 92.0518 25.1207 92.7934 25.1207C93.5458 25.1207 94.1947 25.0607 94.74 24.9407C95.2853 24.8317 95.7324 24.6735 96.0814 24.4663C96.4413 24.27 96.703 24.0301 96.8666 23.7466C97.0302 23.4739 97.1119 23.174 97.1119 22.8469ZM101.136 5.88335V7.38831C101.136 7.86816 100.847 8.16261 100.269 8.27166L98.7641 8.54975C98.9931 9.12774 99.1077 9.76026 99.1077 10.4473C99.1077 11.2761 98.9386 12.0286 98.6005 12.7048C98.2734 13.37 97.8154 13.9371 97.2265 14.406C96.6376 14.8749 95.9396 15.2403 95.1326 15.502C94.3365 15.7528 93.475 15.8783 92.548 15.8783C92.2208 15.8783 91.9046 15.8619 91.5992 15.8292C91.2939 15.7965 90.994 15.7528 90.6995 15.6983C90.176 16.0146 89.9143 16.369 89.9143 16.7616C89.9143 17.0997 90.067 17.3505 90.3723 17.5141C90.6886 17.6668 91.103 17.7758 91.6156 17.8412C92.1281 17.9067 92.7116 17.9503 93.3659 17.9721C94.0202 17.983 94.6909 18.0157 95.378 18.0703C96.065 18.1248 96.7357 18.2229 97.39 18.3647C98.0444 18.4956 98.6278 18.7082 99.1404 19.0027C99.6529 19.2971 100.062 19.7006 100.367 20.2132C100.683 20.7148 100.842 21.3637 100.842 22.1598C100.842 22.9014 100.656 23.6212 100.285 24.3191C99.9256 25.0171 99.3967 25.6387 98.6987 26.184C98.0117 26.7292 97.161 27.1655 96.1468 27.4926C95.1435 27.8307 93.9984 27.9997 92.7116 27.9997C91.4465 27.9997 90.3451 27.8743 89.4072 27.6235C88.4693 27.3836 87.6896 27.0564 87.068 26.642C86.4464 26.2385 85.9829 25.7696 85.6775 25.2352C85.3722 24.7008 85.2195 24.1446 85.2195 23.5666C85.2195 22.7814 85.454 22.1271 85.9229 21.6036C86.4027 21.0693 87.0571 20.644 87.8859 20.3277C87.4388 20.0987 87.0843 19.7933 86.8226 19.4116C86.5609 19.0299 86.43 18.5283 86.43 17.9067C86.43 17.6559 86.4736 17.3996 86.5609 17.1378C86.659 16.8652 86.7953 16.598 86.9698 16.3363C87.1552 16.0746 87.3842 15.8292 87.6569 15.6002C87.9295 15.3602 88.2512 15.1476 88.622 14.9622C87.7714 14.5042 87.1007 13.8935 86.6099 13.1301C86.1301 12.3667 85.8902 11.4724 85.8902 10.4473C85.8902 9.61849 86.0538 8.87146 86.3809 8.20623C86.719 7.53009 87.1825 6.95755 87.7714 6.48861C88.3712 6.00877 89.0746 5.64343 89.8816 5.39261C90.6995 5.14178 91.5883 5.01637 92.548 5.01637C93.2678 5.01637 93.9439 5.0927 94.5764 5.24538C95.2089 5.38715 95.7869 5.59981 96.3104 5.88335H101.136Z" fill="#9D8B73"/>
<path id="Vector_4" d="M84.1435 5.31081L74.9992 26.7074C74.8792 26.991 74.7211 27.2036 74.5248 27.3454C74.3394 27.4981 74.0504 27.5744 73.6578 27.5744H70.6479L73.7887 20.8348L67 5.31081H70.5497C70.866 5.31081 71.1114 5.38715 71.2859 5.53982C71.4713 5.6925 71.6076 5.86699 71.6948 6.06329L75.2609 14.7659C75.3809 15.0603 75.479 15.3548 75.5554 15.6492C75.6426 15.9437 75.7244 16.2436 75.8007 16.5489C75.8989 16.2436 75.9971 15.9437 76.0952 15.6492C76.1933 15.3439 76.3024 15.044 76.4224 14.7495L79.7922 6.06329C79.8794 5.84518 80.0212 5.66524 80.2175 5.52347C80.4247 5.38169 80.6537 5.31081 80.9045 5.31081H84.1435Z" fill="#9D8B73"/>
<path id="Vector_5" d="M59.1059 8.22258C59.6294 7.21927 60.251 6.43407 60.9708 5.86699C61.6905 5.289 62.5411 5 63.5226 5C64.2969 5 64.9185 5.16904 65.3875 5.50711L65.1258 8.53339C65.0712 8.72969 64.9894 8.87146 64.8804 8.9587C64.7822 9.03504 64.6459 9.07321 64.4714 9.07321C64.3078 9.07321 64.0625 9.04594 63.7353 8.99142C63.419 8.93689 63.1082 8.90963 62.8029 8.90963C62.3558 8.90963 61.9577 8.97506 61.6087 9.10593C61.2597 9.23679 60.9435 9.42764 60.6599 9.67846C60.3873 9.91839 60.1419 10.2128 59.9238 10.5618C59.7166 10.9108 59.5203 11.3088 59.3349 11.756V22.0944H55.2944V5.31081H57.6664C58.0808 5.31081 58.3698 5.38715 58.5334 5.53982C58.697 5.68159 58.806 5.94333 58.8605 6.32502L59.1059 8.22258Z" fill="#9D8B73"/>
<path id="Vector_6" d="M47.6085 11.7723C47.6085 11.2489 47.5322 10.7581 47.3795 10.3001C47.2377 9.83115 47.0196 9.42219 46.7252 9.07321C46.4307 8.72424 46.0545 8.4516 45.5965 8.2553C45.1493 8.04809 44.6259 7.94449 44.0261 7.94449C42.8592 7.94449 41.9377 8.27711 41.2615 8.94235C40.5963 9.60758 40.171 10.5509 39.9856 11.7723H47.6085ZM39.9038 14.2097C39.9692 15.0712 40.1219 15.8183 40.3618 16.4508C40.6017 17.0724 40.918 17.5904 41.3106 18.0048C41.7032 18.4083 42.1667 18.7137 42.701 18.9209C43.2463 19.1172 43.8461 19.2153 44.5004 19.2153C45.1548 19.2153 45.7164 19.139 46.1853 18.9863C46.6652 18.8336 47.0796 18.6646 47.4286 18.4792C47.7885 18.2938 48.0993 18.1248 48.361 17.9721C48.6336 17.8194 48.8954 17.7431 49.1462 17.7431C49.4843 17.7431 49.7351 17.8685 49.8987 18.1193L51.0601 19.5916C50.613 20.115 50.1113 20.5567 49.5551 20.9166C48.999 21.2656 48.4155 21.5491 47.8048 21.7672C47.205 21.9744 46.5889 22.1217 45.9563 22.2089C45.3347 22.2961 44.7295 22.3398 44.1406 22.3398C42.9737 22.3398 41.8886 22.1489 40.8853 21.7672C39.882 21.3746 39.0095 20.8021 38.2679 20.0496C37.5264 19.2862 36.9429 18.3483 36.5176 17.236C36.0923 16.1127 35.8796 14.815 35.8796 13.3427C35.8796 12.1976 36.065 11.1234 36.4358 10.1201C36.8066 9.10593 37.3355 8.22803 38.0226 7.48646C38.7205 6.73398 39.5657 6.13963 40.5581 5.70341C41.5614 5.26719 42.6901 5.04908 43.9443 5.04908C45.0021 5.04908 45.9781 5.21811 46.8724 5.55618C47.7666 5.89426 48.5355 6.39046 49.1789 7.04479C49.8223 7.68821 50.324 8.48431 50.6839 9.43309C51.0547 10.371 51.2401 11.4452 51.2401 12.6557C51.2401 13.2664 51.1746 13.6808 51.0438 13.8989C50.9129 14.1061 50.6621 14.2097 50.2913 14.2097H39.9038Z" fill="#9D8B73"/>
<path id="Vector_7" d="M34.1312 5.31081L27.4734 22.0944H23.8092L17.1514 5.31081H20.4885C20.7938 5.31081 21.0446 5.38169 21.2409 5.52347C21.4481 5.66524 21.5845 5.84518 21.6499 6.06329L24.8888 15.0276C25.0633 15.5511 25.216 16.0636 25.3469 16.5653C25.4777 17.0669 25.5922 17.5686 25.6904 18.0703C25.7994 17.5686 25.9194 17.0669 26.0503 16.5653C26.1811 16.0636 26.3393 15.5511 26.5247 15.0276L29.829 6.06329C29.9054 5.84518 30.0417 5.66524 30.238 5.52347C30.4343 5.38169 30.6687 5.31081 30.9414 5.31081H34.1312Z" fill="#9D8B73"/>
<path id="Vector_8" d="M11.7289 11.7723C11.7289 11.2489 11.6525 10.7581 11.4999 10.3001C11.3581 9.83115 11.14 9.42219 10.8455 9.07321C10.5511 8.72424 10.1748 8.4516 9.71681 8.2553C9.26968 8.04809 8.74622 7.94449 8.14642 7.94449C6.97953 7.94449 6.05801 8.27711 5.38187 8.94235C4.71663 9.60758 4.29132 10.5509 4.10592 11.7723H11.7289ZM4.02413 14.2097C4.08957 15.0712 4.24224 15.8183 4.48216 16.4508C4.72209 17.0724 5.03835 17.5904 5.43094 18.0048C5.82354 18.4083 6.28703 18.7137 6.8214 18.9209C7.36667 19.1172 7.96648 19.2153 8.62081 19.2153C9.27514 19.2153 9.83677 19.139 10.3057 18.9863C10.7856 18.8336 11.2 18.6646 11.5489 18.4792C11.9088 18.2938 12.2196 18.1248 12.4814 17.9721C12.754 17.8194 13.0157 17.7431 13.2666 17.7431C13.6046 17.7431 13.8555 17.8685 14.019 18.1193L15.1805 19.5916C14.7333 20.115 14.2317 20.5567 13.6755 20.9166C13.1193 21.2656 12.5359 21.5491 11.9252 21.7672C11.3254 21.9744 10.7092 22.1217 10.0767 22.2089C9.45508 22.2961 8.84982 22.3398 8.26093 22.3398C7.09404 22.3398 6.00894 22.1489 5.00563 21.7672C4.00232 21.3746 3.12988 20.8021 2.38831 20.0496C1.64673 19.2862 1.06329 18.3483 0.637972 17.236C0.212657 16.1127 0 14.815 0 13.3427C0 12.1976 0.185394 11.1234 0.556181 10.1201C0.926969 9.10593 1.45589 8.22803 2.14293 7.48646C2.84089 6.73398 3.68606 6.13963 4.67846 5.70341C5.68177 5.26719 6.81049 5.04908 8.06463 5.04908C9.12246 5.04908 10.0985 5.21811 10.9928 5.55618C11.887 5.89426 12.6558 6.39046 13.2993 7.04479C13.9427 7.68821 14.4444 8.48431 14.8042 9.43309C15.175 10.371 15.3604 11.4452 15.3604 12.6557C15.3604 13.2664 15.295 13.6808 15.1641 13.8989C15.0332 14.1061 14.7824 14.2097 14.4116 14.2097H4.02413Z" fill="#9D8B73"/>
</g>
</g>
</svg>
