<svg width="139" height="24" viewBox="0 0 139 24" fill="none" xmlns="http://www.w3.org/2000/svg">
<path d="M118.652 18.9382V4.55222H120.77C121.218 4.55222 121.513 4.76254 121.653 5.18318L121.877 6.24881C122.13 5.96838 122.391 5.71132 122.662 5.47763C122.943 5.24394 123.237 5.04297 123.546 4.87471C123.864 4.70646 124.2 4.57559 124.555 4.48212C124.92 4.37929 125.317 4.32788 125.747 4.32788C126.654 4.32788 127.397 4.57559 127.977 5.07101C128.565 5.55709 129.005 6.20674 129.295 7.01998C129.519 6.54326 129.799 6.13664 130.136 5.80013C130.472 5.45426 130.842 5.17384 131.244 4.95884C131.645 4.74385 132.071 4.58494 132.519 4.48212C132.978 4.37929 133.436 4.32788 133.894 4.32788C134.688 4.32788 135.394 4.4494 136.011 4.69244C136.628 4.93547 137.147 5.29068 137.567 5.75806C137.988 6.22544 138.306 6.79564 138.521 7.46867C138.745 8.14169 138.857 8.91287 138.857 9.78219V18.9382H135.394V9.78219C135.394 8.86613 135.193 8.17909 134.791 7.72105C134.389 7.25367 133.8 7.01998 133.024 7.01998C132.669 7.01998 132.337 7.08074 132.029 7.20226C131.73 7.32378 131.463 7.50138 131.23 7.73507C131.005 7.95942 130.828 8.24452 130.697 8.59038C130.566 8.93624 130.5 9.33351 130.5 9.78219V18.9382H127.023V9.78219C127.023 8.81939 126.827 8.11833 126.434 7.67899C126.051 7.23965 125.485 7.01998 124.738 7.01998C124.233 7.01998 123.761 7.14618 123.321 7.39856C122.891 7.6416 122.49 7.97811 122.116 8.4081V18.9382H118.652Z" fill="#9D8B73"/>
<path fill-rule="evenodd" clip-rule="evenodd" d="M106.777 12.5919C106.874 12.3984 107.15 12.3984 107.246 12.5919L110.234 18.5674C110.321 18.742 110.195 18.9473 109.999 18.9473H104.024C103.829 18.9473 103.702 18.742 103.789 18.5674L106.777 12.5919Z" fill="#6C5647"/>
<path fill-rule="evenodd" clip-rule="evenodd" d="M108.98 4.24731L116.33 18.9473H113.204C112.707 18.9473 112.252 18.6664 112.03 18.2218L107.012 8.18481L101.993 18.2218C101.771 18.6664 101.316 18.9473 100.819 18.9473H97.6929L105.043 4.24731H108.98Z" fill="#9D8B73"/>
<path d="M93.0275 7.04785C93.4762 6.18788 94.009 5.51485 94.6259 5.02878C95.2428 4.53336 95.972 4.28564 96.8132 4.28564C97.4769 4.28564 98.0097 4.43053 98.4117 4.72031L98.1873 7.31426C98.1406 7.48252 98.0705 7.60404 97.977 7.67882C97.8929 7.74425 97.776 7.77697 97.6265 7.77697C97.4863 7.77697 97.276 7.7536 96.9955 7.70686C96.7244 7.66012 96.458 7.63675 96.1963 7.63675C95.8131 7.63675 95.4719 7.69284 95.1727 7.80501C94.8736 7.91718 94.6025 8.08076 94.3595 8.29576C94.1258 8.5014 93.9155 8.75379 93.7285 9.05291C93.5509 9.35203 93.3827 9.69322 93.2238 10.0765V18.938H89.7605V4.55205H91.7936C92.1488 4.55205 92.3965 4.61748 92.5367 4.74835C92.6769 4.86987 92.7704 5.09421 92.8172 5.42138L93.0275 7.04785Z" fill="#9D8B73"/>
<path d="M79.3267 11.3946C79.7567 11.3946 80.1306 11.3385 80.4485 11.2264C80.7663 11.1048 81.028 10.9413 81.2336 10.7356C81.4486 10.53 81.6076 10.2823 81.7104 9.99248C81.8225 9.70271 81.8786 9.38489 81.8786 9.03903C81.8786 8.32861 81.6636 7.76776 81.2336 7.35646C80.813 6.93582 80.1774 6.7255 79.3267 6.7255C78.4761 6.7255 77.8358 6.93582 77.4058 7.35646C76.9852 7.76776 76.7749 8.32861 76.7749 9.03903C76.7749 9.37554 76.8263 9.68868 76.9291 9.97846C77.0413 10.2682 77.2002 10.5206 77.4058 10.7356C77.6208 10.9413 77.8872 11.1048 78.205 11.2264C78.5322 11.3385 78.9061 11.3946 79.3267 11.3946ZM83.2387 19.5831C83.2387 19.3027 83.1546 19.0737 82.9863 18.8961C82.8181 18.7184 82.5891 18.5829 82.2993 18.4894C82.0095 18.3866 81.6683 18.3118 81.2757 18.2651C80.8925 18.2184 80.4812 18.1856 80.0418 18.1669C79.6118 18.1389 79.1632 18.1155 78.6958 18.0968C78.2378 18.0781 77.7891 18.0407 77.3497 17.9847C76.9665 18.1997 76.6533 18.452 76.4103 18.7418C76.1766 19.0316 76.0598 19.3681 76.0598 19.7514C76.0598 20.0037 76.1205 20.2374 76.242 20.4524C76.3729 20.6768 76.5739 20.8684 76.845 21.0273C77.1254 21.1862 77.4853 21.3077 77.9246 21.3919C78.3639 21.4853 78.9014 21.5321 79.5371 21.5321C80.182 21.5321 80.7382 21.4807 81.2056 21.3778C81.673 21.2844 82.0562 21.1488 82.3554 20.9712C82.6638 20.803 82.8882 20.5973 83.0284 20.3543C83.1686 20.1206 83.2387 19.8635 83.2387 19.5831ZM86.688 5.04294V6.3329C86.688 6.7442 86.4403 6.99658 85.9448 7.09006L84.6549 7.32842C84.8512 7.82384 84.9493 8.366 84.9493 8.9549C84.9493 9.66532 84.8044 10.3103 84.5147 10.8898C84.2342 11.4601 83.8416 11.9461 83.3369 12.3481C82.8321 12.75 82.2338 13.0632 81.5421 13.2875C80.8597 13.5025 80.1213 13.61 79.3267 13.61C79.0463 13.61 78.7752 13.596 78.5135 13.5679C78.2518 13.5399 77.9947 13.5025 77.7423 13.4558C77.2936 13.7268 77.0693 14.0306 77.0693 14.3671C77.0693 14.6569 77.2002 14.8719 77.4619 15.0121C77.733 15.143 78.0882 15.2365 78.5275 15.2926C78.9669 15.3486 79.467 15.386 80.0278 15.4047C80.5887 15.4141 81.1635 15.4421 81.7524 15.4889C82.3413 15.5356 82.9162 15.6197 83.4771 15.7412C84.0379 15.8534 84.538 16.0357 84.9774 16.2881C85.4167 16.5405 85.7672 16.8863 86.029 17.3257C86.3 17.7556 86.4356 18.3118 86.4356 18.9942C86.4356 19.6298 86.2767 20.2468 85.9589 20.845C85.6504 21.4433 85.197 21.9761 84.5988 22.4435C84.0099 22.9108 83.2808 23.2847 82.4114 23.5652C81.5515 23.8549 80.57 23.9998 79.467 23.9998C78.3826 23.9998 77.4385 23.8923 76.6346 23.6773C75.8307 23.4717 75.1624 23.1913 74.6296 22.8361C74.0968 22.4902 73.6995 22.0882 73.4378 21.6302C73.176 21.1722 73.0452 20.6955 73.0452 20.2C73.0452 19.527 73.2461 18.9662 73.6481 18.5175C74.0594 18.0594 74.6202 17.6949 75.3307 17.4238C74.9474 17.2275 74.6436 16.9658 74.4193 16.6386C74.1949 16.3114 74.0828 15.8815 74.0828 15.3486C74.0828 15.1337 74.1201 14.914 74.1949 14.6896C74.2791 14.456 74.3959 14.2269 74.5455 14.0026C74.7044 13.7783 74.9007 13.5679 75.1344 13.3716C75.368 13.166 75.6438 12.9837 75.9616 12.8248C75.2325 12.4322 74.6576 11.9087 74.237 11.2544C73.8257 10.6001 73.62 9.83357 73.62 8.9549C73.62 8.24448 73.7603 7.60418 74.0407 7.03397C74.3305 6.45442 74.7277 5.96367 75.2325 5.56173C75.7466 5.15043 76.3495 4.83729 77.0413 4.6223C77.7423 4.4073 78.5042 4.2998 79.3267 4.2998C79.9437 4.2998 80.5232 4.36524 81.0654 4.4961C81.6076 4.61762 82.103 4.7999 82.5517 5.04294H86.688Z" fill="#9D8B73"/>
<path d="M72.1229 4.552L64.2849 22.892C64.1821 23.135 64.0466 23.3173 63.8783 23.4388C63.7194 23.5697 63.4717 23.6351 63.1352 23.6351H60.5552L63.2473 17.8583L57.4285 4.552H60.4711C60.7422 4.552 60.9525 4.61743 61.1021 4.7483C61.261 4.87917 61.3778 5.02873 61.4526 5.19699L64.5093 12.6564C64.6121 12.9087 64.6962 13.1611 64.7616 13.4135C64.8364 13.6659 64.9065 13.923 64.972 14.1847C65.0561 13.923 65.1402 13.6659 65.2244 13.4135C65.3085 13.1518 65.4019 12.8947 65.5048 12.6423L68.3932 5.19699C68.468 5.01003 68.5895 4.8558 68.7577 4.73428C68.9353 4.61276 69.1316 4.552 69.3466 4.552H72.1229Z" fill="#9D8B73"/>
<path d="M50.6622 7.04785C51.1109 6.18788 51.6437 5.51485 52.2607 5.02878C52.8776 4.53336 53.6067 4.28564 54.448 4.28564C55.1117 4.28564 55.6445 4.43053 56.0464 4.72031L55.8221 7.31426C55.7754 7.48252 55.7053 7.60404 55.6118 7.67882C55.5277 7.74425 55.4108 7.77697 55.2613 7.77697C55.121 7.77697 54.9107 7.7536 54.6303 7.70686C54.3592 7.66012 54.0928 7.63675 53.8311 7.63675C53.4478 7.63675 53.1066 7.69284 52.8075 7.80501C52.5084 7.91718 52.2373 8.08076 51.9943 8.29576C51.7606 8.5014 51.5503 8.75379 51.3633 9.05291C51.1857 9.35203 51.0175 9.69322 50.8585 10.0765V18.938H47.3953V4.55205H49.4284C49.7836 4.55205 50.0313 4.61748 50.1715 4.74835C50.3117 4.86987 50.4052 5.09421 50.4519 5.42138L50.6622 7.04785Z" fill="#9D8B73"/>
<path d="M40.8072 10.0907C40.8072 9.64198 40.7418 9.22134 40.6109 8.82874C40.4894 8.4268 40.3025 8.07626 40.0501 7.77714C39.7977 7.47802 39.4752 7.24433 39.0826 7.07607C38.6994 6.89847 38.2507 6.80966 37.7366 6.80966C36.7364 6.80966 35.9465 7.09476 35.3669 7.66497C34.7967 8.23517 34.4322 9.04374 34.2733 10.0907H40.8072ZM34.2032 12.1798C34.2593 12.9183 34.3901 13.5586 34.5958 14.1008C34.8014 14.6336 35.0725 15.0776 35.409 15.4328C35.7455 15.7787 36.1428 16.0404 36.6008 16.218C37.0682 16.3863 37.5823 16.4704 38.1432 16.4704C38.704 16.4704 39.1854 16.405 39.5874 16.2741C39.9987 16.1432 40.3539 15.9983 40.653 15.8394C40.9615 15.6805 41.2279 15.5356 41.4522 15.4048C41.6859 15.2739 41.9102 15.2085 42.1252 15.2085C42.415 15.2085 42.63 15.316 42.7702 15.531L43.7657 16.7929C43.3825 17.2416 42.9525 17.6201 42.4758 17.9286C41.999 18.2277 41.499 18.4708 40.9755 18.6577C40.4614 18.8353 39.9332 18.9615 39.3911 19.0363C38.8583 19.1111 38.3395 19.1485 37.8347 19.1485C36.8345 19.1485 35.9044 18.9849 35.0444 18.6577C34.1845 18.3212 33.4367 17.8305 32.801 17.1855C32.1654 16.5311 31.6653 15.7273 31.3007 14.7738C30.9362 13.811 30.7539 12.6986 30.7539 11.4367C30.7539 10.4552 30.9128 9.53448 31.2306 8.67451C31.5484 7.80518 32.0018 7.0527 32.5907 6.41706C33.189 5.77208 33.9134 5.26264 34.764 4.88874C35.624 4.51483 36.5915 4.32788 37.6664 4.32788C38.5732 4.32788 39.4098 4.47277 40.1763 4.76254C40.9428 5.05232 41.6018 5.47763 42.1533 6.03849C42.7048 6.58999 43.1348 7.27237 43.4433 8.08561C43.7611 8.8895 43.92 9.81024 43.92 10.8478C43.92 11.3713 43.8639 11.7265 43.7517 11.9134C43.6395 12.091 43.4246 12.1798 43.1067 12.1798H34.2032Z" fill="#9D8B73"/>
<path d="M29.2554 4.552L23.5487 18.9379H20.4079L14.7012 4.552H17.5615C17.8233 4.552 18.0383 4.61276 18.2065 4.73428C18.3841 4.8558 18.501 5.01003 18.5571 5.19699L21.3333 12.8807C21.4828 13.3294 21.6137 13.7687 21.7259 14.1987C21.8381 14.6287 21.9362 15.0587 22.0203 15.4887C22.1138 15.0587 22.2166 14.6287 22.3288 14.1987C22.441 13.7687 22.5765 13.3294 22.7354 12.8807L25.5677 5.19699C25.6332 5.01003 25.75 4.8558 25.9183 4.73428C26.0865 4.61276 26.2875 4.552 26.5212 4.552H29.2554Z" fill="#9D8B73"/>
<path d="M10.0533 10.0907C10.0533 9.64198 9.98789 9.22134 9.85703 8.82874C9.73551 8.4268 9.54855 8.07626 9.29617 7.77714C9.04379 7.47802 8.72129 7.24433 8.3287 7.07607C7.94544 6.89847 7.49676 6.80966 6.98264 6.80966C5.98245 6.80966 5.19258 7.09476 4.61303 7.66497C4.04283 8.23517 3.67827 9.04374 3.51936 10.0907H10.0533ZM3.44926 12.1798C3.50534 12.9183 3.63621 13.5586 3.84186 14.1008C4.0475 14.6336 4.31858 15.0776 4.6551 15.4328C4.99161 15.7787 5.38888 16.0404 5.84691 16.218C6.31429 16.3863 6.82841 16.4704 7.38926 16.4704C7.95012 16.4704 8.43152 16.405 8.83347 16.2741C9.24476 16.1432 9.59997 15.9983 9.89909 15.8394C10.2076 15.6805 10.474 15.5356 10.6983 15.4048C10.932 15.2739 11.1563 15.2085 11.3713 15.2085C11.6611 15.2085 11.8761 15.316 12.0163 15.531L13.0118 16.7929C12.6286 17.2416 12.1986 17.6201 11.7219 17.9286C11.2451 18.2277 10.745 18.4708 10.2216 18.6577C9.70746 18.8353 9.17933 18.9615 8.63717 19.0363C8.10435 19.1111 7.58556 19.1485 7.08079 19.1485C6.0806 19.1485 5.15052 18.9849 4.29054 18.6577C3.43056 18.3212 2.68276 17.8305 2.04712 17.1855C1.41148 16.5311 0.911389 15.7273 0.546834 14.7738C0.182278 13.811 0 12.6986 0 11.4367C0 10.4552 0.158909 9.53448 0.476727 8.67451C0.794544 7.80518 1.2479 7.0527 1.8368 6.41706C2.43505 5.77208 3.15948 5.26264 4.01011 4.88874C4.87009 4.51483 5.83757 4.32788 6.91254 4.32788C7.81925 4.32788 8.65586 4.47277 9.42236 4.76254C10.1889 5.05232 10.8479 5.47763 11.3994 6.03849C11.9509 6.58999 12.3809 7.27237 12.6893 8.08561C13.0072 8.8895 13.1661 9.81024 13.1661 10.8478C13.1661 11.3713 13.11 11.7265 12.9978 11.9134C12.8856 12.091 12.6706 12.1798 12.3528 12.1798H3.44926Z" fill="#9D8B73"/>
</svg>
