<svg width="162" height="112" viewBox="0 0 162 112" fill="none" xmlns="http://www.w3.org/2000/svg">
<g id="Group">
<g id="Brand / Logo / Primary">
<g id="everygram">
<path id="Vector" d="M138.428 106.094V89.3106H140.898C141.421 89.3106 141.765 89.5559 141.928 90.0467L142.19 91.2899C142.485 90.9627 142.79 90.6628 143.106 90.3902C143.433 90.1176 143.777 89.8831 144.137 89.6868C144.508 89.4905 144.9 89.3378 145.315 89.2288C145.74 89.1088 146.203 89.0488 146.705 89.0488C147.763 89.0488 148.63 89.3378 149.306 89.9158C149.993 90.4829 150.506 91.2408 150.844 92.1896C151.105 91.6334 151.433 91.159 151.825 90.7664C152.218 90.3629 152.649 90.0358 153.117 89.785C153.586 89.5341 154.083 89.3487 154.606 89.2288C155.14 89.1088 155.675 89.0488 156.209 89.0488C157.136 89.0488 157.96 89.1906 158.679 89.4741C159.399 89.7577 160.004 90.1721 160.495 90.7174C160.986 91.2626 161.357 91.9279 161.607 92.7131C161.869 93.4983 162 94.398 162 95.4122V106.094H157.96V95.4122C157.96 94.3435 157.725 93.5419 157.256 93.0075C156.787 92.4623 156.1 92.1896 155.195 92.1896C154.781 92.1896 154.393 92.2605 154.034 92.4023C153.685 92.544 153.374 92.7512 153.101 93.0239C152.839 93.2856 152.632 93.6182 152.479 94.0217C152.327 94.4252 152.25 94.8887 152.25 95.4122V106.094H148.194V95.4122C148.194 94.2889 147.965 93.471 147.507 92.9585C147.059 92.4459 146.4 92.1896 145.527 92.1896C144.938 92.1896 144.388 92.3368 143.875 92.6313C143.373 92.9148 142.904 93.3074 142.468 93.8091V106.094H138.428Z" fill="#9D8B73"/>
<g id="Brand / Icon Logo / Color">
<g id="logo">
<g id="Group 73">
<path id="Triangle" fill-rule="evenodd" clip-rule="evenodd" d="M124.573 98.6899C124.686 98.4642 125.008 98.4642 125.121 98.6899L128.606 105.661C128.708 105.865 128.56 106.105 128.333 106.105H121.361C121.133 106.105 120.985 105.865 121.087 105.661L124.573 98.6899Z" fill="#6C5647"/>
</g>
<path id="Path" fill-rule="evenodd" clip-rule="evenodd" d="M127.144 88.9546L135.719 106.105H132.071C131.491 106.105 130.961 105.777 130.702 105.258L124.847 93.5483L118.992 105.258C118.733 105.777 118.202 106.105 117.622 106.105H113.975L122.55 88.9546H127.144Z" fill="#9D8B73"/>
</g>
</g>
<path id="Vector_2" d="M108.532 92.2226C109.056 91.2193 109.677 90.4341 110.397 89.867C111.117 89.289 111.967 89 112.949 89C113.723 89 114.345 89.169 114.814 89.5071L114.552 92.5334C114.497 92.7297 114.416 92.8715 114.307 92.9587C114.208 93.035 114.072 93.0732 113.898 93.0732C113.734 93.0732 113.489 93.0459 113.162 92.9914C112.845 92.9369 112.534 92.9096 112.229 92.9096C111.782 92.9096 111.384 92.9751 111.035 93.1059C110.686 93.2368 110.37 93.4276 110.086 93.6785C109.814 93.9184 109.568 94.2128 109.35 94.5618C109.143 94.9108 108.947 95.3088 108.761 95.756V106.094H104.721V89.3108H107.093C107.507 89.3108 107.796 89.3871 107.96 89.5398C108.123 89.6816 108.232 89.9433 108.287 90.325L108.532 92.2226Z" fill="#9D8B73"/>
<path id="Vector_3" d="M92.548 97.2934C93.0496 97.2934 93.4859 97.228 93.8567 97.0971C94.2274 96.9553 94.5328 96.7645 94.7727 96.5246C95.0235 96.2846 95.2089 95.9956 95.3289 95.6576C95.4598 95.3195 95.5252 94.9487 95.5252 94.5452C95.5252 93.7164 95.2744 93.0621 94.7727 92.5822C94.282 92.0915 93.5404 91.8461 92.548 91.8461C91.5556 91.8461 90.8086 92.0915 90.3069 92.5822C89.8162 93.0621 89.5708 93.7164 89.5708 94.5452C89.5708 94.9378 89.6308 95.3031 89.7507 95.6412C89.8816 95.9793 90.067 96.2737 90.3069 96.5246C90.5577 96.7645 90.8685 96.9553 91.2393 97.0971C91.621 97.228 92.0572 97.2934 92.548 97.2934ZM97.1119 106.847C97.1119 106.519 97.0138 106.252 96.8175 106.045C96.6212 105.838 96.354 105.68 96.0159 105.571C95.6779 105.451 95.2798 105.363 94.8218 105.309C94.3747 105.254 93.8948 105.216 93.3823 105.194C92.8806 105.162 92.3571 105.134 91.8119 105.113C91.2775 105.091 90.754 105.047 90.2415 104.982C89.7943 105.233 89.429 105.527 89.1455 105.865C88.8728 106.203 88.7365 106.596 88.7365 107.043C88.7365 107.337 88.8074 107.61 88.9492 107.861C89.1018 108.123 89.3363 108.346 89.6526 108.532C89.9797 108.717 90.3996 108.859 90.9122 108.957C91.4247 109.066 92.0518 109.12 92.7934 109.12C93.5458 109.12 94.1947 109.06 94.74 108.94C95.2853 108.831 95.7324 108.673 96.0814 108.466C96.4413 108.27 96.703 108.03 96.8666 107.746C97.0302 107.474 97.1119 107.174 97.1119 106.847ZM101.136 89.8831V91.3881C101.136 91.8679 100.847 92.1624 100.269 92.2714L98.7641 92.5495C98.9931 93.1275 99.1077 93.76 99.1077 94.4471C99.1077 95.2759 98.9386 96.0284 98.6005 96.7045C98.2734 97.3697 97.8154 97.9368 97.2265 98.4058C96.6376 98.8747 95.9396 99.24 95.1326 99.5018C94.3365 99.7526 93.475 99.878 92.548 99.878C92.2208 99.878 91.9046 99.8616 91.5992 99.8289C91.2939 99.7962 90.994 99.7526 90.6995 99.6981C90.176 100.014 89.9143 100.369 89.9143 100.761C89.9143 101.099 90.067 101.35 90.3723 101.514C90.6886 101.667 91.103 101.776 91.6156 101.841C92.1281 101.906 92.7116 101.95 93.3659 101.972C94.0202 101.983 94.6909 102.015 95.378 102.07C96.065 102.125 96.7357 102.223 97.39 102.364C98.0444 102.495 98.6278 102.708 99.1404 103.002C99.6529 103.297 100.062 103.7 100.367 104.213C100.683 104.715 100.842 105.363 100.842 106.16C100.842 106.901 100.656 107.621 100.285 108.319C99.9256 109.017 99.3967 109.638 98.6987 110.184C98.0117 110.729 97.161 111.165 96.1468 111.492C95.1435 111.83 93.9984 111.999 92.7116 111.999C91.4465 111.999 90.3451 111.874 89.4072 111.623C88.4693 111.383 87.6896 111.056 87.068 110.642C86.4464 110.238 85.9829 109.769 85.6775 109.235C85.3722 108.701 85.2195 108.144 85.2195 107.566C85.2195 106.781 85.454 106.127 85.9229 105.603C86.4027 105.069 87.0571 104.644 87.8859 104.327C87.4388 104.098 87.0843 103.793 86.8226 103.411C86.5609 103.03 86.43 102.528 86.43 101.906C86.43 101.656 86.4736 101.399 86.5609 101.138C86.659 100.865 86.7953 100.598 86.9698 100.336C87.1552 100.074 87.3842 99.8289 87.6569 99.5999C87.9295 99.36 88.2512 99.1473 88.622 98.9619C87.7714 98.5039 87.1007 97.8932 86.6099 97.1298C86.1301 96.3664 85.8902 95.4722 85.8902 94.4471C85.8902 93.6182 86.0538 92.8712 86.3809 92.206C86.719 91.5298 87.1825 90.9573 87.7714 90.4884C88.3712 90.0085 89.0746 89.6432 89.8816 89.3924C90.6995 89.1415 91.5883 89.0161 92.548 89.0161C93.2678 89.0161 93.9439 89.0925 94.5764 89.2451C95.2089 89.3869 95.7869 89.5996 96.3104 89.8831H101.136Z" fill="#9D8B73"/>
<path id="Vector_4" d="M84.1435 89.3105L74.9992 110.707C74.8792 110.991 74.7211 111.203 74.5248 111.345C74.3394 111.498 74.0504 111.574 73.6578 111.574H70.6479L73.7887 104.835L67 89.3105H70.5497C70.866 89.3105 71.1114 89.3869 71.2859 89.5396C71.4713 89.6922 71.6076 89.8667 71.6948 90.063L75.2609 98.7656C75.3809 99.0601 75.479 99.3545 75.5554 99.649C75.6426 99.9434 75.7244 100.243 75.8007 100.549C75.8989 100.243 75.9971 99.9434 76.0952 99.649C76.1933 99.3436 76.3024 99.0437 76.4224 98.7493L79.7922 90.063C79.8794 89.8449 80.0212 89.665 80.2175 89.5232C80.4247 89.3814 80.6537 89.3105 80.9045 89.3105H84.1435Z" fill="#9D8B73"/>
<path id="Vector_5" d="M59.1059 92.2226C59.6294 91.2193 60.251 90.4341 60.9708 89.867C61.6905 89.289 62.5411 89 63.5226 89C64.2969 89 64.9185 89.169 65.3875 89.5071L65.1258 92.5334C65.0712 92.7297 64.9894 92.8715 64.8804 92.9587C64.7822 93.035 64.6459 93.0732 64.4714 93.0732C64.3078 93.0732 64.0625 93.0459 63.7353 92.9914C63.419 92.9369 63.1082 92.9096 62.8029 92.9096C62.3558 92.9096 61.9577 92.9751 61.6087 93.1059C61.2597 93.2368 60.9435 93.4276 60.6599 93.6785C60.3873 93.9184 60.1419 94.2128 59.9238 94.5618C59.7166 94.9108 59.5203 95.3088 59.3349 95.756V106.094H55.2944V89.3108H57.6664C58.0808 89.3108 58.3698 89.3871 58.5334 89.5398C58.697 89.6816 58.806 89.9433 58.8605 90.325L59.1059 92.2226Z" fill="#9D8B73"/>
<path id="Vector_6" d="M47.6085 95.7721C47.6085 95.2486 47.5322 94.7579 47.3795 94.2998C47.2377 93.8309 47.0196 93.4219 46.7252 93.073C46.4307 92.724 46.0545 92.4513 45.5965 92.255C45.1493 92.0478 44.6259 91.9442 44.0261 91.9442C42.8592 91.9442 41.9377 92.2769 41.2615 92.9421C40.5963 93.6073 40.171 94.5507 39.9856 95.7721H47.6085ZM39.9038 98.2095C39.9692 99.071 40.1219 99.818 40.3618 100.451C40.6017 101.072 40.918 101.59 41.3106 102.005C41.7032 102.408 42.1667 102.713 42.701 102.921C43.2463 103.117 43.8461 103.215 44.5004 103.215C45.1548 103.215 45.7164 103.139 46.1853 102.986C46.6652 102.833 47.0796 102.664 47.4286 102.479C47.7885 102.294 48.0993 102.125 48.361 101.972C48.6336 101.819 48.8954 101.743 49.1462 101.743C49.4843 101.743 49.7351 101.868 49.8987 102.119L51.0601 103.591C50.613 104.115 50.1113 104.556 49.5551 104.916C48.999 105.265 48.4155 105.549 47.8048 105.767C47.205 105.974 46.5889 106.121 45.9563 106.209C45.3347 106.296 44.7295 106.34 44.1406 106.34C42.9737 106.34 41.8886 106.149 40.8853 105.767C39.882 105.374 39.0095 104.802 38.2679 104.049C37.5264 103.286 36.9429 102.348 36.5176 101.236C36.0923 100.112 35.8796 98.8147 35.8796 97.3425C35.8796 96.1974 36.065 95.1232 36.4358 94.1199C36.8066 93.1057 37.3355 92.2278 38.0226 91.4862C38.7205 90.7337 39.5657 90.1394 40.5581 89.7032C41.5614 89.2669 42.6901 89.0488 43.9443 89.0488C45.0021 89.0488 45.9781 89.2179 46.8724 89.5559C47.7666 89.894 48.5355 90.3902 49.1789 91.0445C49.8223 91.688 50.324 92.4841 50.6839 93.4328C51.0547 94.3707 51.2401 95.4449 51.2401 96.6554C51.2401 97.2661 51.1746 97.6805 51.0438 97.8987C50.9129 98.1059 50.6621 98.2095 50.2913 98.2095H39.9038Z" fill="#9D8B73"/>
<path id="Vector_7" d="M34.1312 89.3105L27.4734 106.094H23.8092L17.1514 89.3105H20.4885C20.7938 89.3105 21.0446 89.3814 21.2409 89.5232C21.4481 89.665 21.5845 89.8449 21.6499 90.063L24.8888 99.0274C25.0633 99.5508 25.216 100.063 25.3469 100.565C25.4777 101.067 25.5922 101.568 25.6904 102.07C25.7994 101.568 25.9194 101.067 26.0503 100.565C26.1811 100.063 26.3393 99.5508 26.5247 99.0274L29.829 90.063C29.9054 89.8449 30.0417 89.665 30.238 89.5232C30.4343 89.3814 30.6687 89.3105 30.9414 89.3105H34.1312Z" fill="#9D8B73"/>
<path id="Vector_8" d="M11.7289 95.7721C11.7289 95.2486 11.6525 94.7579 11.4999 94.2998C11.3581 93.8309 11.14 93.4219 10.8455 93.073C10.5511 92.724 10.1748 92.4513 9.71681 92.255C9.26968 92.0478 8.74622 91.9442 8.14642 91.9442C6.97953 91.9442 6.05801 92.2769 5.38187 92.9421C4.71663 93.6073 4.29132 94.5507 4.10592 95.7721H11.7289ZM4.02413 98.2095C4.08957 99.071 4.24224 99.818 4.48216 100.451C4.72209 101.072 5.03835 101.59 5.43094 102.005C5.82354 102.408 6.28703 102.713 6.8214 102.921C7.36667 103.117 7.96648 103.215 8.62081 103.215C9.27514 103.215 9.83677 103.139 10.3057 102.986C10.7856 102.833 11.2 102.664 11.5489 102.479C11.9088 102.294 12.2196 102.125 12.4814 101.972C12.754 101.819 13.0157 101.743 13.2666 101.743C13.6046 101.743 13.8555 101.868 14.019 102.119L15.1805 103.591C14.7333 104.115 14.2317 104.556 13.6755 104.916C13.1193 105.265 12.5359 105.549 11.9252 105.767C11.3254 105.974 10.7092 106.121 10.0767 106.209C9.45508 106.296 8.84982 106.34 8.26093 106.34C7.09404 106.34 6.00894 106.149 5.00563 105.767C4.00232 105.374 3.12988 104.802 2.38831 104.049C1.64673 103.286 1.06329 102.348 0.637972 101.236C0.212657 100.112 0 98.8147 0 97.3425C0 96.1974 0.185394 95.1232 0.556181 94.1199C0.926969 93.1057 1.45589 92.2278 2.14293 91.4862C2.84089 90.7337 3.68606 90.1394 4.67846 89.7032C5.68177 89.2669 6.81049 89.0488 8.06463 89.0488C9.12246 89.0488 10.0985 89.2179 10.9928 89.5559C11.887 89.894 12.6558 90.3902 13.2993 91.0445C13.9427 91.688 14.4444 92.4841 14.8042 93.4328C15.175 94.3707 15.3604 95.4449 15.3604 96.6554C15.3604 97.2661 15.295 97.6805 15.1641 97.8987C15.0332 98.1059 14.7824 98.2095 14.4116 98.2095H4.02413Z" fill="#9D8B73"/>
</g>
</g>
<g id="Brand Icon">
<g id="logo_2">
<g id="Group 73_2">
<path id="Triangle_2" fill-rule="evenodd" clip-rule="evenodd" d="M79.6056 43.7889C79.9741 43.0518 81.0259 43.0518 81.3944 43.7889L92.7764 66.5528C93.1088 67.2177 92.6253 68 91.882 68H69.118C68.3747 68 67.8912 67.2177 68.2236 66.5528L79.6056 43.7889Z" fill="#6C5647"/>
<path id="Path_2" fill-rule="evenodd" clip-rule="evenodd" d="M80.9472 43.3416C81.1407 43.4384 81.2977 43.5953 81.3944 43.7888L92.7764 66.5528C93.0234 67.0468 92.8232 67.6474 92.3292 67.8944C92.1903 67.9638 92.0372 68 91.882 68L80.5 67.9998L80.5003 43.2358C80.6507 43.2358 80.8035 43.2698 80.9472 43.3416Z" fill="url(#paint0_linear_0_921)"/>
</g>
<path id="Path_3" fill-rule="evenodd" clip-rule="evenodd" d="M88 12L116 68H104.09C102.196 68 100.465 66.93 99.618 65.2361L80.5 27L61.382 65.2361C60.535 66.93 58.8037 68 56.9098 68H45L73 12H88Z" fill="#9D8B73"/>
<path id="Path_4" fill-rule="evenodd" clip-rule="evenodd" d="M88 12L80.5 27L88 42V12Z" fill="url(#paint1_linear_0_921)"/>
</g>
</g>
</g>
<defs>
<linearGradient id="paint0_linear_0_921" x1="90.4835" y1="28.4926" x2="70.3866" y2="42.4371" gradientUnits="userSpaceOnUse">
<stop stop-opacity="0.2"/>
<stop offset="1" stop-opacity="0.01"/>
</linearGradient>
<linearGradient id="paint1_linear_0_921" x1="82.5498" y1="-7.05104" x2="99.719" y2="-1.09459" gradientUnits="userSpaceOnUse">
<stop stop-opacity="0.2"/>
<stop offset="1" stop-opacity="0.01"/>
</linearGradient>
</defs>
</svg>
