<svg width="139" height="24" viewBox="0 0 139 24" fill="none" xmlns="http://www.w3.org/2000/svg">
<path d="M118.652 18.9379V4.55198H120.77C121.218 4.55198 121.513 4.7623 121.653 5.18294L121.877 6.24857C122.13 5.96814 122.391 5.71108 122.662 5.47739C122.943 5.2437 123.237 5.04273 123.546 4.87447C123.864 4.70621 124.2 4.57535 124.555 4.48187C124.92 4.37905 125.317 4.32764 125.747 4.32764C126.654 4.32764 127.397 4.57535 127.977 5.07077C128.565 5.55684 129.005 6.2065 129.295 7.01974C129.519 6.54301 129.799 6.13639 130.136 5.79988C130.472 5.45402 130.842 5.17359 131.244 4.9586C131.645 4.7436 132.071 4.58469 132.519 4.48187C132.978 4.37905 133.436 4.32764 133.894 4.32764C134.688 4.32764 135.394 4.44916 136.011 4.69219C136.628 4.93523 137.147 5.29044 137.567 5.75782C137.988 6.2252 138.306 6.7954 138.521 7.46842C138.745 8.14145 138.857 8.91262 138.857 9.78195V18.9379H135.394V9.78195C135.394 8.86589 135.193 8.17884 134.791 7.72081C134.389 7.25343 133.8 7.01974 133.024 7.01974C132.669 7.01974 132.337 7.0805 132.029 7.20202C131.73 7.32354 131.463 7.50114 131.23 7.73483C131.005 7.95917 130.828 8.24427 130.697 8.59013C130.566 8.93599 130.5 9.33327 130.5 9.78195V18.9379H127.023V9.78195C127.023 8.81915 126.827 8.11808 126.434 7.67875C126.051 7.23941 125.485 7.01974 124.738 7.01974C124.233 7.01974 123.761 7.14593 123.321 7.39832C122.891 7.64136 122.49 7.97787 122.116 8.40786V18.9379H118.652Z" fill="white"/>
<path fill-rule="evenodd" clip-rule="evenodd" d="M106.777 12.5912C106.873 12.3977 107.15 12.3977 107.246 12.5912L110.234 18.5667C110.321 18.7412 110.194 18.9466 109.999 18.9466H104.024C103.829 18.9466 103.702 18.7412 103.789 18.5667L106.777 12.5912Z" fill="white" fill-opacity="0.4"/>
<path fill-rule="evenodd" clip-rule="evenodd" d="M108.98 4.24658L116.33 18.9466H113.204C112.707 18.9466 112.252 18.6657 112.03 18.221L107.012 8.18408L101.993 18.221C101.771 18.6657 101.316 18.9466 100.819 18.9466H97.6929L105.043 4.24658H108.98Z" fill="white"/>
<path d="M93.0275 7.04785C93.4762 6.18788 94.009 5.51485 94.6259 5.02878C95.2428 4.53336 95.972 4.28564 96.8132 4.28564C97.4769 4.28564 98.0097 4.43053 98.4117 4.72031L98.1873 7.31426C98.1406 7.48252 98.0705 7.60404 97.977 7.67882C97.8929 7.74425 97.776 7.77697 97.6265 7.77697C97.4863 7.77697 97.276 7.7536 96.9955 7.70686C96.7244 7.66012 96.458 7.63675 96.1963 7.63675C95.8131 7.63675 95.4719 7.69284 95.1727 7.80501C94.8736 7.91718 94.6025 8.08076 94.3595 8.29576C94.1258 8.5014 93.9155 8.75379 93.7285 9.05291C93.5509 9.35203 93.3827 9.69322 93.2238 10.0765V18.938H89.7605V4.55205H91.7936C92.1488 4.55205 92.3965 4.61748 92.5367 4.74835C92.6769 4.86987 92.7704 5.09421 92.8172 5.42138L93.0275 7.04785Z" fill="white"/>
<path d="M79.3267 11.3941C79.7567 11.3941 80.1306 11.338 80.4485 11.2259C80.7663 11.1044 81.028 10.9408 81.2336 10.7351C81.4486 10.5295 81.6076 10.2818 81.7104 9.99199C81.8225 9.70222 81.8786 9.3844 81.8786 9.03854C81.8786 8.32812 81.6636 7.76727 81.2336 7.35598C80.813 6.93533 80.1774 6.72501 79.3267 6.72501C78.4761 6.72501 77.8358 6.93533 77.4058 7.35598C76.9852 7.76727 76.7749 8.32812 76.7749 9.03854C76.7749 9.37505 76.8263 9.6882 76.9291 9.97797C77.0413 10.2677 77.2002 10.5201 77.4058 10.7351C77.6208 10.9408 77.8872 11.1044 78.205 11.2259C78.5322 11.338 78.9061 11.3941 79.3267 11.3941ZM83.2387 19.5826C83.2387 19.3022 83.1546 19.0732 82.9863 18.8956C82.8181 18.718 82.5891 18.5824 82.2993 18.4889C82.0095 18.3861 81.6683 18.3113 81.2757 18.2646C80.8925 18.2179 80.4812 18.1851 80.0418 18.1665C79.6118 18.1384 79.1632 18.115 78.6958 18.0963C78.2378 18.0777 77.7891 18.0403 77.3497 17.9842C76.9665 18.1992 76.6533 18.4516 76.4103 18.7413C76.1766 19.0311 76.0598 19.3676 76.0598 19.7509C76.0598 20.0033 76.1205 20.2369 76.242 20.4519C76.3729 20.6763 76.5739 20.8679 76.845 21.0268C77.1254 21.1857 77.4853 21.3072 77.9246 21.3914C78.3639 21.4848 78.9014 21.5316 79.5371 21.5316C80.182 21.5316 80.7382 21.4802 81.2056 21.3773C81.673 21.2839 82.0562 21.1483 82.3554 20.9707C82.6638 20.8025 82.8882 20.5968 83.0284 20.3538C83.1686 20.1201 83.2387 19.863 83.2387 19.5826ZM86.688 5.04245V6.33241C86.688 6.74371 86.4403 6.99609 85.9448 7.08957L84.6549 7.32793C84.8512 7.82335 84.9493 8.36551 84.9493 8.95441C84.9493 9.66483 84.8044 10.3098 84.5147 10.8894C84.2342 11.4596 83.8416 11.9456 83.3369 12.3476C82.8321 12.7495 82.2338 13.0627 81.5421 13.287C80.8597 13.502 80.1213 13.6095 79.3267 13.6095C79.0463 13.6095 78.7752 13.5955 78.5135 13.5674C78.2518 13.5394 77.9947 13.502 77.7423 13.4553C77.2936 13.7264 77.0693 14.0301 77.0693 14.3667C77.0693 14.6564 77.2002 14.8714 77.4619 15.0116C77.733 15.1425 78.0882 15.236 78.5275 15.2921C78.9669 15.3482 79.467 15.3855 80.0278 15.4042C80.5887 15.4136 81.1635 15.4416 81.7524 15.4884C82.3413 15.5351 82.9162 15.6192 83.4771 15.7408C84.0379 15.8529 84.538 16.0352 84.9774 16.2876C85.4167 16.54 85.7672 16.8858 86.029 17.3252C86.3 17.7552 86.4356 18.3113 86.4356 18.9937C86.4356 19.6293 86.2767 20.2463 85.9589 20.8445C85.6504 21.4428 85.197 21.9756 84.5988 22.443C84.0099 22.9103 83.2808 23.2843 82.4114 23.5647C81.5515 23.8545 80.57 23.9993 79.467 23.9993C78.3826 23.9993 77.4385 23.8918 76.6346 23.6769C75.8307 23.4712 75.1624 23.1908 74.6296 22.8356C74.0968 22.4897 73.6995 22.0878 73.4378 21.6297C73.176 21.1717 73.0452 20.695 73.0452 20.1996C73.0452 19.5265 73.2461 18.9657 73.6481 18.517C74.0594 18.059 74.6202 17.6944 75.3307 17.4233C74.9474 17.227 74.6436 16.9653 74.4193 16.6381C74.1949 16.311 74.0828 15.881 74.0828 15.3482C74.0828 15.1332 74.1201 14.9135 74.1949 14.6892C74.2791 14.4555 74.3959 14.2264 74.5455 14.0021C74.7044 13.7778 74.9007 13.5674 75.1344 13.3711C75.368 13.1655 75.6438 12.9832 75.9616 12.8243C75.2325 12.4317 74.6576 11.9082 74.237 11.2539C73.8257 10.5996 73.62 9.83308 73.62 8.95441C73.62 8.244 73.7603 7.60369 74.0407 7.03348C74.3305 6.45393 74.7277 5.96319 75.2325 5.56124C75.7466 5.14995 76.3495 4.8368 77.0413 4.62181C77.7423 4.40681 78.5042 4.29932 79.3267 4.29932C79.9437 4.29932 80.5232 4.36475 81.0654 4.49561C81.6076 4.61713 82.103 4.79941 82.5517 5.04245H86.688Z" fill="white"/>
<path d="M71.8658 4.55176L64.0278 22.8917C63.925 23.1348 63.7895 23.317 63.6212 23.4385C63.4623 23.5694 63.2146 23.6348 62.8781 23.6348H60.2982L62.9903 17.858L57.1714 4.55176H60.214C60.4851 4.55176 60.6954 4.61719 60.845 4.74806C61.0039 4.87892 61.1207 5.02848 61.1955 5.19674L64.2522 12.6561C64.355 12.9085 64.4391 13.1609 64.5046 13.4133C64.5793 13.6656 64.6495 13.9227 64.7149 14.1844C64.799 13.9227 64.8831 13.6656 64.9673 13.4133C65.0514 13.1515 65.1449 12.8945 65.2477 12.6421L68.1361 5.19674C68.2109 5.00979 68.3324 4.85555 68.5007 4.73404C68.6783 4.61252 68.8746 4.55176 69.0896 4.55176H71.8658Z" fill="white"/>
<path d="M50.6622 7.04785C51.1109 6.18788 51.6437 5.51485 52.2607 5.02878C52.8776 4.53336 53.6067 4.28564 54.448 4.28564C55.1117 4.28564 55.6445 4.43053 56.0464 4.72031L55.8221 7.31426C55.7754 7.48252 55.7053 7.60404 55.6118 7.67882C55.5277 7.74425 55.4108 7.77697 55.2613 7.77697C55.121 7.77697 54.9107 7.7536 54.6303 7.70686C54.3592 7.66012 54.0928 7.63675 53.8311 7.63675C53.4478 7.63675 53.1066 7.69284 52.8075 7.80501C52.5084 7.91718 52.2373 8.08076 51.9943 8.29576C51.7606 8.5014 51.5503 8.75379 51.3633 9.05291C51.1857 9.35203 51.0175 9.69322 50.8585 10.0765V18.938H47.3953V4.55205H49.4284C49.7836 4.55205 50.0313 4.61748 50.1715 4.74835C50.3117 4.86987 50.4052 5.09421 50.4519 5.42138L50.6622 7.04785Z" fill="white"/>
<path d="M40.8072 10.0904C40.8072 9.64174 40.7418 9.2211 40.6109 8.8285C40.4894 8.42655 40.3025 8.07602 40.0501 7.77689C39.7977 7.47777 39.4752 7.24408 39.0826 7.07583C38.6994 6.89822 38.2507 6.80942 37.7366 6.80942C36.7364 6.80942 35.9465 7.09452 35.3669 7.66472C34.7967 8.23493 34.4322 9.04349 34.2733 10.0904H40.8072ZM34.2032 12.1796C34.2593 12.9181 34.3901 13.5584 34.5958 14.1005C34.8014 14.6333 35.0725 15.0774 35.409 15.4326C35.7455 15.7784 36.1428 16.0402 36.6008 16.2178C37.0682 16.386 37.5823 16.4701 38.1432 16.4701C38.704 16.4701 39.1854 16.4047 39.5874 16.2738C39.9987 16.143 40.3539 15.9981 40.653 15.8392C40.9615 15.6803 41.2279 15.5354 41.4522 15.4045C41.6859 15.2737 41.9102 15.2082 42.1252 15.2082C42.415 15.2082 42.63 15.3157 42.7702 15.5307L43.7657 16.7926C43.3825 17.2413 42.9525 17.6199 42.4758 17.9284C41.999 18.2275 41.499 18.4705 40.9755 18.6575C40.4614 18.8351 39.9332 18.9613 39.3911 19.0361C38.8583 19.1108 38.3395 19.1482 37.8347 19.1482C36.8345 19.1482 35.9044 18.9846 35.0444 18.6575C34.1845 18.321 33.4367 17.8302 32.801 17.1852C32.1654 16.5309 31.6653 15.727 31.3007 14.7736C30.9362 13.8108 30.7539 12.6984 30.7539 11.4365C30.7539 10.455 30.9128 9.53424 31.2306 8.67426C31.5484 7.80494 32.0018 7.05246 32.5907 6.41682C33.189 5.77184 33.9134 5.26239 34.764 4.88849C35.624 4.51459 36.5915 4.32764 37.6664 4.32764C38.5732 4.32764 39.4098 4.47252 40.1763 4.7623C40.9428 5.05207 41.6018 5.47739 42.1533 6.03824C42.7048 6.58975 43.1348 7.27212 43.4433 8.08536C43.7611 8.88926 43.92 9.80999 43.92 10.8476C43.92 11.371 43.8639 11.7262 43.7517 11.9132C43.6395 12.0908 43.4246 12.1796 43.1067 12.1796H34.2032Z" fill="white"/>
<path d="M29.2554 4.55176L23.5487 18.9377H20.4079L14.7012 4.55176H17.5615C17.8233 4.55176 18.0383 4.61252 18.2065 4.73404C18.3841 4.85555 18.501 5.00979 18.5571 5.19674L21.3333 12.8805C21.4828 13.3291 21.6137 13.7685 21.7259 14.1985C21.8381 14.6284 21.9362 15.0584 22.0203 15.4884C22.1138 15.0584 22.2166 14.6284 22.3288 14.1985C22.441 13.7685 22.5765 13.3291 22.7354 12.8805L25.5677 5.19674C25.6332 5.00979 25.75 4.85555 25.9183 4.73404C26.0865 4.61252 26.2875 4.55176 26.5212 4.55176H29.2554Z" fill="white"/>
<path d="M10.0533 10.0904C10.0533 9.64174 9.98789 9.2211 9.85703 8.8285C9.73551 8.42655 9.54855 8.07602 9.29617 7.77689C9.04379 7.47777 8.72129 7.24408 8.3287 7.07583C7.94544 6.89822 7.49676 6.80942 6.98264 6.80942C5.98245 6.80942 5.19258 7.09452 4.61303 7.66472C4.04283 8.23493 3.67827 9.04349 3.51936 10.0904H10.0533ZM3.44926 12.1796C3.50534 12.9181 3.63621 13.5584 3.84186 14.1005C4.0475 14.6333 4.31858 15.0774 4.6551 15.4326C4.99161 15.7784 5.38888 16.0402 5.84691 16.2178C6.31429 16.386 6.82841 16.4701 7.38926 16.4701C7.95012 16.4701 8.43152 16.4047 8.83347 16.2738C9.24476 16.143 9.59997 15.9981 9.89909 15.8392C10.2076 15.6803 10.474 15.5354 10.6983 15.4045C10.932 15.2737 11.1563 15.2082 11.3713 15.2082C11.6611 15.2082 11.8761 15.3157 12.0163 15.5307L13.0118 16.7926C12.6286 17.2413 12.1986 17.6199 11.7219 17.9284C11.2451 18.2275 10.745 18.4705 10.2216 18.6575C9.70746 18.8351 9.17933 18.9613 8.63717 19.0361C8.10435 19.1108 7.58556 19.1482 7.08079 19.1482C6.0806 19.1482 5.15052 18.9846 4.29054 18.6575C3.43056 18.321 2.68276 17.8302 2.04712 17.1852C1.41148 16.5309 0.911389 15.727 0.546834 14.7736C0.182278 13.8108 0 12.6984 0 11.4365C0 10.455 0.158909 9.53424 0.476727 8.67426C0.794544 7.80494 1.2479 7.05246 1.8368 6.41682C2.43505 5.77184 3.15948 5.26239 4.01011 4.88849C4.87009 4.51459 5.83757 4.32764 6.91254 4.32764C7.81925 4.32764 8.65586 4.47252 9.42236 4.7623C10.1889 5.05207 10.8479 5.47739 11.3994 6.03824C11.9509 6.58975 12.3809 7.27212 12.6893 8.08536C13.0072 8.88926 13.1661 9.80999 13.1661 10.8476C13.1661 11.371 13.11 11.7262 12.9978 11.9132C12.8856 12.0908 12.6706 12.1796 12.3528 12.1796H3.44926Z" fill="white"/>
</svg>
