<svg id="_0049_camping" xmlns="http://www.w3.org/2000/svg" viewBox="0 0 500 500" data-imageid="camping-24" imageName="Camping" class="illustrations_image" style="width: 215px;"><defs><style>.cls-1_camping-24,.cls-2_camping-24{fill:#fff;}.cls-3_camping-24{fill:#f4a28c;}.cls-4_camping-24,.cls-5_camping-24{fill:#a5a5a5;}.cls-6_camping-24{opacity:.03;}.cls-6_camping-24,.cls-7_camping-24{fill:#000001;}.cls-5_camping-24{opacity:.25;}.cls-8_camping-24{fill:none;opacity:.56;}.cls-9_camping-24,.cls-10_camping-24{fill:#e6e6e6;}.cls-10_camping-24{opacity:.36;}.cls-11_camping-24{fill:#ce8172;opacity:.31;}.cls-2_camping-24{opacity:.35;}.cls-12_camping-24{fill:#24285b;}.cls-7_camping-24{opacity:.08;}.cls-13_camping-24{fill:#ffd200;}.cls-14_camping-24{fill:#68e1fd;}</style></defs><g id="bg_camping-24"><rect class="cls-4_camping-24" x="380.6" y="320.15" width="25.18" height="83.87"/><polygon class="cls-9_camping-24" points="435.09 256.69 450.71 256.69 423.44 200.57 443.54 200.57 416.24 151.61 426.36 151.61 397.78 89.82 366.08 151.61 374.74 151.61 344.46 200.57 365.91 200.57 335.67 256.69 355.86 256.69 322.64 320.15 465.04 320.15 435.09 256.69"/><polygon class="cls-9_camping-24" points="332.43 298.76 309.49 247.47 324.39 247.47 295.57 188.14 311.52 188.14 282.01 130.7 249.28 188.14 263.38 188.14 231.41 247.47 248.82 247.47 223.38 298.76 332.43 298.76"/><g class="cls-8_camping-24"><polygon class="cls-1_camping-24" points="435.09 256.69 450.71 256.69 423.44 200.57 443.54 200.57 416.24 151.61 426.36 151.61 397.78 89.82 366.08 151.61 374.74 151.61 344.46 200.57 365.91 200.57 335.67 256.69 355.86 256.69 322.64 320.15 465.04 320.15 435.09 256.69"/><polygon class="cls-1_camping-24" points="332.43 298.76 309.49 247.47 324.39 247.47 295.57 188.14 311.52 188.14 282.01 130.7 249.28 188.14 263.38 188.14 231.41 247.47 248.82 247.47 223.38 298.76 332.43 298.76"/></g><rect class="cls-4_camping-24" x="270.23" y="298.76" width="20.35" height="67.79"/><ellipse class="cls-6_camping-24" cx="245.4" cy="420.99" rx="221.82" ry="32.41"/><polygon class="cls-9_camping-24" points="144.97 404.02 294.26 404.02 210.18 279.08 144.97 404.02"/><polygon class="cls-5_camping-24" points="144.97 404.02 294.26 404.02 210.18 279.08 144.97 404.02"/><polygon class="cls-9_camping-24" points="210.18 279.08 337.07 279.08 415 404.02 294.26 404.02 210.18 279.08"/><rect class="cls-9_camping-24" x="88.34" y="363.74" width="102.8" height="60.74"/><path class="cls-5_camping-24" d="m135.61,424.48l-45.97.33-1.3-39.03,3.12-16.46,20.46-2.98,42.32-3.02s-2.63,13.2-12.59,19.44c-7.62,4.77-12.64,12.83-12.66,21.82-.01,6.43,1.54,13.59,6.62,19.9Z"/><polygon class="cls-4_camping-24" points="397.87 409.95 387.05 391.4 400.08 398.03 406.71 376.83 412.45 395.95 425.7 388.58 423.49 402 439.54 402.9 429.23 409.95 397.87 409.95"/></g><g id="music_camping-24"><circle class="cls-12_camping-24" cx="185.78" cy="177.45" r="33.49"/><polygon class="cls-12_camping-24" points="165.81 189.86 152.28 215.04 175.46 198.25 165.81 189.86"/><polygon class="cls-1_camping-24" points="181.78 184.22 179.38 184.22 179.38 166.79 196.97 162.24 196.97 179.24 194.57 179.24 194.57 165.33 181.78 168.64 181.78 184.22"/><ellipse class="cls-13_camping-24" cx="178.51" cy="188.01" rx="5.85" ry="3.92" transform="translate(-75.97 138.5) rotate(-35.48)"/><ellipse class="cls-13_camping-24" cx="193.05" cy="183.1" rx="5.85" ry="3.92" transform="translate(-70.42 146.03) rotate(-35.48)"/></g><g id="person_camping-24"><path class="cls-3_camping-24" d="m105.99,203.11s-1.96,7.07-1.64,12.07c.13,2.03,1.91,3.59,3.94,3.43,2.52-.2,5.86-1.2,7.37-4.86l3.33-5.9s1.96-3.77-1.57-7.45c-3.52-3.68-10.45-1.67-11.43,2.7Z"/><polygon class="cls-3_camping-24" points="117.6 209.32 123.36 232.66 110.27 234.92 111.31 217.48 117.6 209.32"/><path class="cls-3_camping-24" d="m104.98,207.63l-2.53,2.4c-.62.59-.42,1.63.39,1.95l2.66,1.03-.52-5.38Z"/><path class="cls-11_camping-24" d="m111.28,217.97s4.46-2.06,5.69-3.89c0,0-.26,9.6-6.19,12.39l.51-8.51Z"/><path class="cls-3_camping-24" d="m113.28,209.76s.57-2.77,2.62-2.16c2.05.6,1.25,4.6-1.66,4.45l-.96-2.29Z"/><path class="cls-12_camping-24" d="m121.76,206.23l-1.53,2.64s-1.85,6.78-6.36,10.29c-4.52,3.5-10.87,2.78-11.41-1.99-.63-5.47,3.04-4.16,7.95-4.39,4.91-.23,4.16-6.8,4.16-6.8-2.16.03-3.65-1.12-4.64-2.43l-3.2-2.12s-.46-4.81,4.62-5.69,15.22,2.63,10.42,10.48Z"/><path class="cls-3_camping-24" d="m117.5,206.9s3.56-2.11,4.89.73c1.33,2.83-2.66,5.05-5.35,3.33,0,0,1.05-1.82.47-4.06Z"/><polygon class="cls-4_camping-24" points="210.18 279.08 202.82 404.02 221.82 404.02 210.18 279.08"/><path class="cls-14_camping-24 targetColor" d="m108.64,417.46s-1.82,5.06-6.4,5.45c-4.57.39-5.77,4.86-1.66,6.03,4.11,1.17,14.72-4.12,14.72-4.12l-.3-6.6-6.37-.75Z" style="fill: rgb(227, 227, 227);"/><path class="cls-14_camping-24 targetColor" d="m109.16,234.65l13.09-2.26s43.53.07,51.15,14.97c7.62,14.91,6.02,70.4-19.16,115.95l-51.56,1.49s2.86-33.46-6.75-51.68c-9.61-18.22-39.47-56.93,13.23-78.48Z" style="fill: rgb(227, 227, 227);"/><path class="cls-12_camping-24" d="m154.24,363.32l-25.22-3.8c-15.6-2.35-29.22,10.64-27.61,26.34l3.29,32.04h12.37l-1.07-29.99c-.26-7.15,6.08-12.77,13.14-11.63,10.73,1.73,24.03.98,25.09-12.95Z"/><path class="cls-14_camping-24 targetColor" d="m82.97,417.46s-1.82,5.06-6.4,5.45c-4.57.39-5.77,4.86-1.66,6.03,4.11,1.17,14.72-4.12,14.72-4.12l-.3-6.6-6.37-.75Z" style="fill: rgb(227, 227, 227);"/><path class="cls-7_camping-24" d="m149.81,252.71s-14.29,12.53-11.42,26.36c2.87,13.83-25.12,48.28-25.12,48.28l-10.44,34.23,51.4,1.73,3.59-7.03-8.01-103.58Z"/><path class="cls-12_camping-24" d="m128.57,363.32l-25.22-3.8c-15.6-2.35-29.22,10.64-27.61,26.34l3.29,32.04h12.37l-1.07-29.99c-.26-7.15,6.08-12.77,13.14-11.63,10.73,1.73,24.03.98,25.09-12.95Z"/><path class="cls-14_camping-24 targetColor" d="m150.43,250.71c3.34-9.62,15.64-12.75,23.19-5.91,5.56,5.04,10.8,13.84,10.49,29.12-.66,32.02-3.36,82.62-21.2,85.32-17.84,2.7-29.81-49.1-29.81-49.1l8.39-9.52,11.26-10.8s-7.88-23.1-2.32-39.11Z" style="fill: rgb(227, 227, 227);"/><path class="cls-2_camping-24" d="m150.43,250.71c3.34-9.62,15.64-12.75,23.19-5.91,5.56,5.04,10.8,13.84,10.49,29.12-.66,32.02-3.36,82.62-21.2,85.32-17.84,2.7-29.81-49.1-29.81-49.1l8.39-9.52,11.26-10.8s-7.88-23.1-2.32-39.11Z"/><path class="cls-13_camping-24" d="m107.15,200.21l14.12,6.13c.47.2,1.01.07,1.32-.33,1.23-1.56,4.07-5.5,3.7-8.15-.46-3.37-3.08-9.17-7.66-9.63-3.55-.36-8.84-1.64-12.44,9.86-.26.85.14,1.76.95,2.11Z"/><path class="cls-13_camping-24" d="m116.61,328.71l26.06-26.32,1.64,1.62,12.93-13.07-8.81-8.72-12.93,13.07,1.65,1.63-26.06,26.32c-7.94-5.3-18.76-4.43-25.73,2.61-7.9,7.98-7.83,20.85.15,28.75s20.85,7.83,28.75-.15c6.97-7.04,7.73-17.87,2.34-25.75Z"/><circle class="cls-1_camping-24" cx="99.82" cy="340.15" r="8.37"/><path class="cls-3_camping-24" d="m142.57,305.95s1.44-8.44-7.95-4.08c-9.39,4.35-8.66,24.35,7.95,4.08Z"/><path class="cls-3_camping-24" d="m86.61,336.86s13.77-2.65,14.67,1.66-.94,11.59-12.94,7.29c-12-4.31-1.73-8.94-1.73-8.94Z"/><path class="cls-14_camping-24 targetColor" d="m85,251.33s-49.2,60.83-39.36,93.92c7.95,26.72,42.69.55,42.69.55l-1.73-8.94-22.86,4.69,26.26-38.88-5.01-51.34Z" style="fill: rgb(227, 227, 227);"/><path class="cls-7_camping-24" d="m90.02,302.66s-17.22-26.03-7.5-48.15c0,0-11.73,15.84-16.85,24.56,0,0,1.22,27.49,16.1,35.79l8.24-12.2Z"/></g><g id="snow_camping-24"><circle class="cls-9_camping-24" cx="50.19" cy="153.43" r="5.85"/><circle class="cls-9_camping-24" cx="196.97" cy="70.49" r="5.85"/><circle class="cls-9_camping-24" cx="465.04" cy="370.23" r="5.85"/><circle class="cls-9_camping-24" cx="450.71" cy="111.47" r="5.85"/><circle class="cls-9_camping-24" cx="329.82" cy="147.57" r="5.85"/><circle class="cls-10_camping-24" cx="72.4" cy="52.54" r="5.85"/><circle class="cls-10_camping-24" cx="344.46" cy="37.86" r="5.85"/><circle class="cls-10_camping-24" cx="472.63" cy="247.25" r="5.85"/><circle class="cls-10_camping-24" cx="196.97" cy="238.25" r="5.85"/><circle class="cls-10_camping-24" cx="29.65" cy="294.09" r="5.85"/></g></svg>